<?xml version="1.0" encoding="UTF-8" standalone="no"?>
<!-- Created with Inkscape (http://www.inkscape.org/) -->

<svg
   xmlns:osb="http://www.openswatchbook.org/uri/2009/osb"
   xmlns:dc="http://purl.org/dc/elements/1.1/"
   xmlns:cc="http://creativecommons.org/ns#"
   xmlns:rdf="http://www.w3.org/1999/02/22-rdf-syntax-ns#"
   xmlns:svg="http://www.w3.org/2000/svg"
   xmlns="http://www.w3.org/2000/svg"
   xmlns:sodipodi="http://sodipodi.sourceforge.net/DTD/sodipodi-0.dtd"
   xmlns:inkscape="http://www.inkscape.org/namespaces/inkscape"
   width="744.09448819"
   height="1052.3622047"
   id="svg2"
   inkscape:label="Pozadí"
   version="1.1"
   inkscape:version="0.48.5 r10040"
   sodipodi:docname="kresba1.svg"
   inkscape:export-filename="C:\Users\Lucie\Desktop\Inkscape\steny.png"
   inkscape:export-xdpi="200"
   inkscape:export-ydpi="200">
  <defs
     id="defs3000">
    <linearGradient
       id="linearGradient5265"
       osb:paint="gradient">
      <stop
         style="stop-color:#000000;stop-opacity:1;"
         offset="0"
         id="stop5267" />
      <stop
         style="stop-color:#000000;stop-opacity:0;"
         offset="1"
         id="stop5269" />
    </linearGradient>
    <linearGradient
       id="linearGradient3777"
       osb:paint="solid">
      <stop
         style="stop-color:#0000ff;stop-opacity:1;"
         offset="0"
         id="stop3779" />
    </linearGradient>
  </defs>
  <sodipodi:namedview
     id="base"
     pagecolor="#ffffff"
     bordercolor="#666666"
     borderopacity="1.0"
     inkscape:pageopacity="0.0"
     inkscape:pageshadow="2"
     inkscape:zoom="0.91"
     inkscape:cx="350.74746"
     inkscape:cy="448.50049"
     inkscape:document-units="px"
     inkscape:current-layer="layer5"
     showgrid="true"
     inkscape:window-width="1680"
     inkscape:window-height="987"
     inkscape:window-x="-8"
     inkscape:window-y="-8"
     inkscape:window-maximized="1"
     inkscape:snap-bbox="false"
     inkscape:object-paths="true"
     inkscape:snap-nodes="false"
     inkscape:snap-global="false">
    <inkscape:grid
       type="xygrid"
       id="grid3812" />
  </sodipodi:namedview>
  <metadata
     id="metadata3003">
    <rdf:RDF>
      <cc:Work
         rdf:about="">
        <dc:format>image/svg+xml</dc:format>
        <dc:type
           rdf:resource="http://purl.org/dc/dcmitype/StillImage" />
        <dc:title></dc:title>
      </cc:Work>
    </rdf:RDF>
  </metadata>
  <g
     inkscape:label="Vrstva 1"
     inkscape:groupmode="layer"
     id="layer1"
     style="display:none" />
  <g
     inkscape:groupmode="layer"
     id="layer2"
     inkscape:label="Layer"
     style="display:none">
    <rect
       style="fill:#ffffff;fill-opacity:1;fill-rule:evenodd;stroke:#000000;stroke-width:2;stroke-linecap:square;stroke-linejoin:miter;stroke-miterlimit:4;stroke-opacity:1;stroke-dasharray:none"
       id="rect3007"
       width="686.78149"
       height="1000.6572"
       x="29.577263"
       y="24.448151"
       ry="0"
       inkscape:export-filename="C:\Users\Lucie\Desktop\Inkscape\obrys.png"
       inkscape:export-xdpi="200"
       inkscape:export-ydpi="200" />
    <path
       style="opacity:0.98999999;fill:#ffffff;fill-opacity:1;fill-rule:evenodd;stroke:#000000;stroke-width:1.70000005;stroke-miterlimit:4;stroke-opacity:1;stroke-dasharray:none"
       d="m 64.379161,635.63707 c 0,-155.33334 2.165731,-93.22184 -0.140989,-363.60487 C 61.931452,1.6491667 684.94287,2.612226 684.60875,272.64596 c -0.25564,123.71422 0.91651,266.49786 0.39193,363.5381 l -0.10881,355.37812 -329.04792,1.78827 -291.098698,-1.6423 c 0,0 -0.366091,-200.73775 -0.366091,-356.07108 z"
       id="path3783"
       inkscape:connector-curvature="0"
       sodipodi:nodetypes="szcccccs" />
  </g>
  <g
     inkscape:groupmode="layer"
     id="layer4"
     inkscape:label="Layer#1"
     style="display:none" />
  <g
     inkscape:groupmode="layer"
     id="layer3"
     inkscape:label="2"
     style="display:inline">
    <g
       id="g3042"
       transform="translate(3.0769233,0)"
       inkscape:export-filename="C:\Users\Lucie\Desktop\Inkscape\prava.png"
       inkscape:export-xdpi="200"
       inkscape:export-ydpi="200">
      <rect
         y="913.15979"
         x="626.46625"
         height="78.336433"
         width="55.18198"
         id="rect2992"
         style="fill:#ffaaaa;fill-rule:evenodd;stroke:#000000;stroke-width:1px;stroke-linecap:butt;stroke-linejoin:miter;stroke-opacity:1"
         ry="0" />
      <path
         sodipodi:nodetypes="ccscsccccccc"
         inkscape:connector-curvature="0"
         id="path5286"
         d="m 577.28923,611.40138 -0.52495,-243.80273 c -3.3972,-70.86447 -27.74516,-84.24241 -53.41881,-123.27291 -37.7996,-57.46503 -69.21811,-72.99536 -25.24717,-63.87947 15.38876,1.43509 70.19972,13.66203 99.42979,43.78815 23.8348,24.56545 22.88123,21.1386 29.56934,68.7619 l -0.0442,220.09511 -0.45081,349.41553 -0.15191,129.54397 -228.507,1.18867 178.79753,-139.64723 z"
         style="fill:#e9afaf;fill-opacity:1;fill-rule:evenodd;stroke:#000000;stroke-width:0.9379108;stroke-opacity:1" />
    </g>
    <path
       style="fill:#e9afaf;fill-opacity:1;fill-rule:evenodd;stroke:#000000;stroke-width:0.91220516;stroke-opacity:1"
       d="M 103.9968,594.50517 72.673842,486.95388 64.910544,455.36917 64.344433,824.81646 64.891364,989.24752 294.23042,990.82043 105.83813,847.54278 z"
       id="path5286-1"
       inkscape:connector-curvature="0"
       sodipodi:nodetypes="cccccccc"
       inkscape:export-filename="C:\Users\Lucie\Desktop\Inkscape\leva.png"
       inkscape:export-xdpi="200"
       inkscape:export-ydpi="200" />
    <path
       style="fill:#e9afaf;fill-opacity:1;fill-rule:evenodd;stroke:#000000;stroke-width:0.526793;stroke-opacity:1;display:inline"
       d="m 177.43674,714.98401 -23.83023,-47.146 -5.90626,-13.84543 -0.43069,161.95031 0.9686,25.1184 c 0,0 105.77114,61.8805 103.20846,58.70056 -12.99743,-16.12805 5.68445,-22.83995 5.68445,-22.83995 l -78.29345,-47.14934 z"
       id="path5286-1-1"
       inkscape:connector-curvature="0"
       sodipodi:nodetypes="cccccsccc"
       inkscape:export-filename="C:\Users\Lucie\Desktop\Inkscape\LeveKridlo.png"
       inkscape:export-xdpi="200"
       inkscape:export-ydpi="200" />
    <path
       style="fill:#e9afaf;fill-opacity:1;fill-rule:evenodd;stroke:#000000;stroke-width:0.526793;stroke-opacity:1;display:inline"
       d="m 514.4543,712.05922 23.83023,-47.146 5.90626,-13.84543 0.43069,161.95031 -0.9686,25.1184 c 0,0 -105.77114,61.8805 -103.20846,58.70056 12.99743,-16.12805 -5.68445,-22.83995 -5.68445,-22.83995 l 78.29345,-47.14934 z"
       id="path5286-1-1-48"
       inkscape:connector-curvature="0"
       sodipodi:nodetypes="cccccsccc"
       inkscape:export-filename="C:\Users\Lucie\Desktop\Inkscape\PraveKridlo.png"
       inkscape:export-xdpi="200"
       inkscape:export-ydpi="200" />
  </g>
  <g
     inkscape:groupmode="layer"
     id="layer5"
     inkscape:label="pálky"
     style="display:inline">
    <path
       style="fill:#e9afaf;fill-opacity:1;fill-rule:evenodd;stroke:#000000;stroke-width:0.2667855;stroke-opacity:1;display:inline"
       d="m 258.69658,901.09643 c -3.83368,0.67657 -7.29208,-1.12521 -9.24815,-4.58118 -4.37381,-7.72761 -0.62757,-13.33544 2.97093,-16.64102 0,0 20.18669,-7.00542 30.28852,-10.47689 10.80838,-3.71424 31.45235,-10.97708 32.44325,-11.07584 22.11249,-2.20376 8.10755,9.51422 3.83839,12.06478 -19.45708,11.07707 -52.38119,29.31394 -60.29294,30.71015 z"
       id="path5286-1-1-4"
       inkscape:connector-curvature="0"
       sodipodi:nodetypes="sscascs"
       inkscape:export-filename="C:\Users\Lucie\Desktop\Inkscape\palka.png"
       inkscape:export-xdpi="200"
       inkscape:export-ydpi="200" />
    <path
       style="fill:#e9afaf;fill-opacity:1;fill-rule:evenodd;stroke:#000000;stroke-width:0.2667855;stroke-opacity:1;display:inline"
       d="m 439.20959,895.47144 c 3.60311,-1.47393 5.56614,-4.84341 5.37584,-8.80999 -0.42552,-8.86933 -6.58655,-11.61229 -11.3939,-12.48715 0,0 -20.8101,4.84959 -31.20564,7.30533 -11.12263,2.62754 -32.45682,7.50349 -33.34749,7.94882 -19.87599,9.93802 -1.77846,12.37295 3.1931,12.25139 22.36616,-1.01693 59.94221,-3.16655 67.37809,-6.2084 z"
       id="path5286-1-1-4-9"
       inkscape:connector-curvature="0"
       sodipodi:nodetypes="sscascs"
       inkscape:export-filename="C:\Users\Lucie\Desktop\Inkscape\leva.png"
       inkscape:export-xdpi="200"
       inkscape:export-ydpi="200" />
  </g>
</svg>
