<?xml version="1.0" encoding="UTF-8" standalone="no"?>
<!-- Created with Inkscape (http://www.inkscape.org/) -->

<svg
   xmlns:osb="http://www.openswatchbook.org/uri/2009/osb"
   xmlns:dc="http://purl.org/dc/elements/1.1/"
   xmlns:cc="http://creativecommons.org/ns#"
   xmlns:rdf="http://www.w3.org/1999/02/22-rdf-syntax-ns#"
   xmlns:svg="http://www.w3.org/2000/svg"
   xmlns="http://www.w3.org/2000/svg"
   xmlns:xlink="http://www.w3.org/1999/xlink"
   xmlns:sodipodi="http://sodipodi.sourceforge.net/DTD/sodipodi-0.dtd"
   xmlns:inkscape="http://www.inkscape.org/namespaces/inkscape"
   width="744.09448819"
   height="1052.3622047"
   id="svg2"
   inkscape:label="Pozadí"
   version="1.1"
   inkscape:version="0.48.5 r10040"
   sodipodi:docname="kresba1.svg"
   inkscape:export-filename="C:\Users\Lucie\Desktop\Inkscape\steny.png"
   inkscape:export-xdpi="200"
   inkscape:export-ydpi="200">
  <defs
     id="defs3000">
    <linearGradient
       inkscape:collect="always"
       id="linearGradient3970">
      <stop
         style="stop-color:#d5f6ff;stop-opacity:1;"
         offset="0"
         id="stop3972" />
      <stop
         style="stop-color:#d5f6ff;stop-opacity:0;"
         offset="1"
         id="stop3974" />
    </linearGradient>
    <linearGradient
       id="linearGradient5265"
       osb:paint="gradient">
      <stop
         style="stop-color:#000000;stop-opacity:1;"
         offset="0"
         id="stop5267" />
      <stop
         style="stop-color:#000000;stop-opacity:0;"
         offset="1"
         id="stop5269" />
    </linearGradient>
    <linearGradient
       id="linearGradient3777"
       osb:paint="solid">
      <stop
         style="stop-color:#0000ff;stop-opacity:1;"
         offset="0"
         id="stop3779" />
    </linearGradient>
    <linearGradient
       inkscape:collect="always"
       xlink:href="#linearGradient3970"
       id="linearGradient3976"
       x1="63.381782"
       y1="531.51641"
       x2="685.9874"
       y2="531.51641"
       gradientUnits="userSpaceOnUse" />
  </defs>
  <sodipodi:namedview
     id="base"
     pagecolor="#ffffff"
     bordercolor="#666666"
     borderopacity="1.0"
     inkscape:pageopacity="0.0"
     inkscape:pageshadow="2"
     inkscape:zoom="0.88"
     inkscape:cx="471.27327"
     inkscape:cy="549.58317"
     inkscape:document-units="px"
     inkscape:current-layer="layer2"
     showgrid="false"
     inkscape:window-width="1680"
     inkscape:window-height="987"
     inkscape:window-x="1672"
     inkscape:window-y="-8"
     inkscape:window-maximized="1"
     inkscape:snap-bbox="false"
     inkscape:object-paths="true"
     inkscape:snap-nodes="false"
     inkscape:snap-global="false">
    <inkscape:grid
       type="xygrid"
       id="grid3812" />
  </sodipodi:namedview>
  <metadata
     id="metadata3003">
    <rdf:RDF>
      <cc:Work
         rdf:about="">
        <dc:format>image/svg+xml</dc:format>
        <dc:type
           rdf:resource="http://purl.org/dc/dcmitype/StillImage" />
        <dc:title></dc:title>
      </cc:Work>
    </rdf:RDF>
  </metadata>
  <g
     inkscape:label="Vrstva 1"
     inkscape:groupmode="layer"
     id="layer1"
     style="display:inline" />
  <g
     inkscape:groupmode="layer"
     id="layer2"
     inkscape:label="Layer"
     style="display:inline">
    <rect
       style="fill:#ffffff;fill-opacity:1;fill-rule:evenodd;stroke:#000000;stroke-width:2;stroke-linecap:square;stroke-linejoin:miter;stroke-miterlimit:4;stroke-opacity:1;stroke-dasharray:none"
       id="rect3007"
       width="686.78149"
       height="1000.6572"
       x="29.577263"
       y="24.448151"
       ry="0"
       inkscape:export-filename="C:\Users\Lucie\Desktop\Inkscape\obrys.png"
       inkscape:export-xdpi="200"
       inkscape:export-ydpi="200" />
    <path
       style="opacity:0.98999999000000005;fill:url(#linearGradient3976);fill-opacity:1;fill-rule:evenodd;stroke:#000000;stroke-width:1.70000005000000010;stroke-miterlimit:4;stroke-opacity:1;stroke-dasharray:none"
       d="m 685.00068,636.18406 -0.10881,355.37812 -329.04792,1.78827 -291.098698,-1.6423 c 0,0 -0.366091,-200.73775 -0.366091,-356.07108 0,-155.33334 2.165731,-93.22184 -0.140989,-363.60487 C 61.931452,1.6491667 684.94287,2.612226 684.60875,272.64596 c -0.25564,123.71422 0.91651,266.49786 0.39193,363.5381"
       id="path3783"
       inkscape:connector-curvature="0"
       sodipodi:nodetypes="ccccszcc" />
  </g>
  <g
     inkscape:groupmode="layer"
     id="layer4"
     inkscape:label="Layer#1"
     style="display:inline" />
  <g
     inkscape:groupmode="layer"
     id="layer3"
     inkscape:label="2"
     style="display:inline">
    <g
       id="g3042"
       transform="translate(3.0769233,0)"
       inkscape:export-filename="C:\Users\Lucie\Desktop\Inkscape\prava.png"
       inkscape:export-xdpi="200"
       inkscape:export-ydpi="200"
       style="fill:#808080;fill-opacity:1">
      <path
         sodipodi:nodetypes="cscscccccccsccc"
         inkscape:connector-curvature="0"
         id="path5286"
         d="m 596.48165,366.93164 c -3.3972,-70.86447 -43.07916,-102.74886 -50.94068,-109.86404 -48.45091,-43.85118 -91.41361,-85.73722 -47.44267,-76.62133 15.38876,1.43509 70.19972,13.66203 99.42979,43.78815 23.8348,24.56545 33.2889,62.34056 39.97701,109.96386 l -2.95683,582.9519 47.15786,0.6681 -0.0763,73.89823 -283.68637,1.52309 201.2924,-140.06372 -2.3931,-123.2656 c -6.04287,-37.06477 -31.7516,-37.3007 -33.54763,-50.99273 l -3.48929,-26.60048 36.91655,-73.08708 z"
         style="fill:#808080;fill-opacity:1;fill-rule:evenodd;stroke:#000000;stroke-width:0.9379108;stroke-opacity:1" />
    </g>
    <path
       style="fill:#808080;fill-opacity:1;fill-rule:evenodd;stroke:#000000;stroke-width:0.91220516;stroke-opacity:1"
       d="m 121.54419,564.44666 -54.648791,-105.43075 -1.401709,-1.8973 -0.01918,533.87835 213.42997,2.70927 -172.6354,-129.48908 0.2918,-135.08215 c 3.55749,-50.77387 33.21304,-74.27833 51.3601,-83.13936 z"
       id="path5286-1"
       inkscape:connector-curvature="0"
       sodipodi:nodetypes="ccccccccc"
       inkscape:export-filename="C:\Users\Lucie\Desktop\Inkscape\leva.png"
       inkscape:export-xdpi="200"
       inkscape:export-ydpi="200" />
    <path
       style="fill:#cccccc;fill-opacity:1;fill-rule:evenodd;stroke:#000000;stroke-width:0.526793;stroke-opacity:1;display:inline"
       d="m 173.93786,742.975 c -0.0112,-16.23437 -25.65362,-12.53305 -26.23761,-0.92743 0.2958,59.0516 0.0114,38.82641 0.53795,99.01372 0,0 105.77114,61.8805 103.20846,58.70056 -12.99743,-16.12805 5.68445,-22.83995 5.68445,-22.83995 l -81.20918,-47.73249 z"
       id="path5286-1-1"
       inkscape:connector-curvature="0"
       sodipodi:nodetypes="cccsccc"
       inkscape:export-filename="C:\Users\Lucie\Desktop\Inkscape\LeveKridlo.png"
       inkscape:export-xdpi="200"
       inkscape:export-ydpi="200" />
    <path
       style="fill:#cccccc;fill-opacity:1;fill-rule:evenodd;stroke:#000000;stroke-width:0.526793;stroke-opacity:1;display:inline"
       d="m 532.05958,740.30289 c 0.0112,-16.23437 25.65362,-12.53305 26.23761,-0.92743 -0.2958,59.0516 -0.0114,38.82641 -0.53795,99.01372 0,0 -105.77114,61.8805 -103.20846,58.70056 12.99743,-16.12805 -5.68445,-22.83995 -5.68445,-22.83995 l 81.20918,-47.73249 z"
       id="path5286-1-1-7"
       inkscape:connector-curvature="0"
       sodipodi:nodetypes="cccsccc"
       inkscape:export-filename="C:\Users\Lucie\Desktop\Inkscape\PraveKridlo.png"
       inkscape:export-xdpi="200"
       inkscape:export-ydpi="200" />
  </g>
  <g
     inkscape:groupmode="layer"
     id="layer5"
     inkscape:label="pálky"
     style="display:inline">
    <path
       style="fill:#1a1a1a;fill-opacity:1;fill-rule:evenodd;stroke:#000000;stroke-width:0.2667855;stroke-opacity:1;display:inline"
       d="m 260.51004,901.45364 c -3.89193,0.0884 -7.0377,-2.21616 -8.44806,-5.92841 -3.15355,-8.30068 1.39845,-13.27675 5.45588,-15.99948 0,0 21.01455,-3.86873 31.52548,-5.77094 11.24609,-2.03521 32.75163,-6.08918 33.74605,-6.03679 22.19126,1.16911 6.57381,10.63191 1.96774,12.5068 -20.90972,8.00391 -56.21517,21.04641 -64.24709,21.22882 z"
       id="path5286-1-1-4"
       inkscape:connector-curvature="0"
       sodipodi:nodetypes="sscascs"
       inkscape:export-filename="C:\Users\Lucie\Desktop\Inkscape\palka.png"
       inkscape:export-xdpi="200"
       inkscape:export-ydpi="200" />
    <path
       style="fill:#1a1a1a;fill-opacity:1;fill-rule:evenodd;stroke:#000000;stroke-width:0.2667855;stroke-opacity:1;display:inline"
       d="m 447.15396,896.96576 c 3.67204,-1.29269 5.80041,-4.56024 5.80787,-8.53138 0.0167,-8.87951 -6.00015,-11.92586 -10.75797,-13.03901 0,0 -21.02578,3.80733 -31.5307,5.74238 -11.23967,2.07043 -32.7902,5.878 -33.70194,6.27843 -20.34619,8.93597 -2.39236,12.26904 2.57909,12.39519 22.38905,0.0981 60.02553,-0.17781 67.60365,-2.84561 z"
       id="path5286-1-1-4-9"
       inkscape:connector-curvature="0"
       sodipodi:nodetypes="sscascs"
       inkscape:export-filename="C:\Users\Lucie\Desktop\Inkscape\leva.png"
       inkscape:export-xdpi="200"
       inkscape:export-ydpi="200" />
  </g>
  <g
     inkscape:groupmode="layer"
     id="layer6"
     inkscape:label="bouncers"
     style="display:inline">
    <path
       style="fill:#808080;fill-opacity:1;fill-rule:evenodd;stroke:#000000;stroke-width:0.37930882;stroke-opacity:1;display:inline"
       d="m 204.30245,738.54654 0.52219,62.40882 c 0.58234,12.44984 0.49584,18.5457 43.21516,31.32995 15.96568,3.08607 33.26904,8.8475 31.51044,0.89769 l -36.78785,-56.51479 c -14.15766,-19.953 -38.01352,-64.65311 -38.45994,-38.12167 z"
       id="path5286-1-4"
       inkscape:connector-curvature="0"
       sodipodi:nodetypes="cccccc"
       inkscape:export-filename="C:\Users\Lucie\Desktop\Inkscape\bouncer2.png"
       inkscape:export-xdpi="200"
       inkscape:export-ydpi="200" />
    <path
       style="fill:#808080;fill-opacity:1;fill-rule:evenodd;stroke:#000000;stroke-width:0.37930882;stroke-opacity:1;display:inline"
       d="m 500.74145,734.63941 -0.52219,62.40882 c -0.58234,12.44984 -0.49584,18.5457 -43.21516,31.32995 -15.96568,3.08607 -33.26904,8.8475 -31.51044,0.89769 l 36.78785,-56.51479 c 14.15766,-19.953 38.01352,-64.65311 38.45994,-38.12167 z"
       id="path5286-1-4-0"
       inkscape:connector-curvature="0"
       sodipodi:nodetypes="cccccc"
       inkscape:export-filename="C:\Users\Lucie\Desktop\Inkscape\leva.png"
       inkscape:export-xdpi="200"
       inkscape:export-ydpi="200" />
    <path
       style="fill:#808080;fill-opacity:1;fill-rule:evenodd;stroke:#000000;stroke-width:0.35989761;stroke-opacity:1;display:inline"
       d="m 433.52442,177.96896 -0.14345,50.30997 -10.70155,-0.13618 -0.24266,-50.09749 z"
       id="path5286-1-4-0-9"
       inkscape:connector-curvature="0"
       sodipodi:nodetypes="ccccc"
       inkscape:export-filename="C:\Users\Lucie\Desktop\Inkscape\leva.png"
       inkscape:export-xdpi="200"
       inkscape:export-ydpi="200" />
    <path
       style="fill:#808080;fill-opacity:1;fill-rule:evenodd;stroke:#000000;stroke-width:0.35989761;stroke-opacity:1;display:inline"
       d="m 381.84156,178.55678 -0.14345,50.30997 -10.70155,-0.13618 -0.24266,-50.09749 z"
       id="path5286-1-4-0-9-4"
       inkscape:connector-curvature="0"
       sodipodi:nodetypes="ccccc"
       inkscape:export-filename="C:\Users\Lucie\Desktop\Inkscape\leva.png"
       inkscape:export-xdpi="200"
       inkscape:export-ydpi="200" />
    <path
       style="fill:#808080;fill-opacity:1;fill-rule:evenodd;stroke:#000000;stroke-width:0.35989761;stroke-opacity:1;display:inline"
       d="m 328.36768,179.54703 -0.14345,50.30997 -10.70155,-0.13618 -0.24266,-50.09749 z"
       id="path5286-1-4-0-9-8"
       inkscape:connector-curvature="0"
       sodipodi:nodetypes="ccccc"
       inkscape:export-filename="C:\Users\Lucie\Desktop\Inkscape\prepazka.png"
       inkscape:export-xdpi="200"
       inkscape:export-ydpi="200" />
    <path
       style="fill:#808080;fill-opacity:1;fill-rule:evenodd;stroke:#000000;stroke-width:0.35989761;stroke-opacity:1;display:inline"
       d="m 278.56261,179.54703 -0.14345,50.30997 -10.70155,-0.13618 -0.24266,-50.09749 z"
       id="path5286-1-4-0-9-82"
       inkscape:connector-curvature="0"
       sodipodi:nodetypes="ccccc"
       inkscape:export-filename="C:\Users\Lucie\Desktop\Inkscape\leva.png"
       inkscape:export-xdpi="200"
       inkscape:export-ydpi="200" />
    <path
       sodipodi:type="arc"
       style="fill:#ff5555;fill-opacity:1;stroke:#000000;stroke-width:1;stroke-miterlimit:4;stroke-opacity:1;stroke-dasharray:none;display:inline"
       id="path3904"
       sodipodi:cx="252.51558"
       sodipodi:cy="324.52313"
       sodipodi:rx="42.581059"
       sodipodi:ry="38.620029"
       d="m 295.09664,324.52313 a 42.581059,38.620029 0 1 1 -8e-5,-0.0723"
       sodipodi:start="0"
       sodipodi:end="6.2813124"
       sodipodi:open="true"
       transform="matrix(1.0344584,0,0,1.0379926,11.035785,-19.96526)"
       inkscape:export-filename="C:\Users\Lucie\Desktop\Inkscape\bouncer1.png"
       inkscape:export-xdpi="200"
       inkscape:export-ydpi="200" />
    <path
       sodipodi:type="arc"
       style="fill:#ff5555;fill-opacity:1;stroke:#000000;stroke-width:1;stroke-miterlimit:4;stroke-opacity:1;stroke-dasharray:none;display:inline"
       id="path3904-4"
       sodipodi:cx="252.51558"
       sodipodi:cy="324.52313"
       sodipodi:rx="42.581059"
       sodipodi:ry="38.620029"
       d="m 295.09664,324.52313 a 42.581059,38.620029 0 1 1 -8e-5,-0.0723"
       sodipodi:start="0"
       sodipodi:end="6.2813124"
       sodipodi:open="true"
       transform="matrix(1.0344584,0,0,1.0379926,168.80322,-19.47014)" />
  </g>
  <g
     inkscape:groupmode="layer"
     id="layer7"
     inkscape:label="ball"
     style="display:inline">
    <path
       sodipodi:type="arc"
       style="fill:#000000;fill-opacity:1;stroke:none"
       id="path3830"
       sodipodi:cx="658.97546"
       sodipodi:cy="809.23853"
       sodipodi:rx="20.232435"
       sodipodi:ry="19.730804"
       d="m 679.2079,809.23853 a 20.232435,19.730804 0 1 1 -4e-5,-0.037"
       sodipodi:start="0"
       sodipodi:end="6.2813124"
       sodipodi:open="true"
       transform="matrix(0.63636362,0,0,0.61016948,-47.370556,181.55625)"
       inkscape:export-filename="C:\Users\Lucie\Desktop\Inkscape\ball.png"
       inkscape:export-xdpi="200"
       inkscape:export-ydpi="200" />
  </g>
</svg>
